<!-- <svg xmlns="http://www.w3.org/2000/svg" stroke="currentColor"
fill="none" viewBox="0 0 24 24" stroke-width="2" stroke-linecap="round" stroke-linejoin="round"
>
    <path
        d="M2.5 17a24.12 24.12 0 0 1 0-10 2 2 0 0 1 1.4-1.4 49.56 49.56 0 0 1 16.2 0A2 2 0 0 1 21.5 7a24.12
24.12 0 0 1 0 10 2 2 0 0 1-1.4 1.4 49.55 49.55 0 0 1-16.2 0A2 2 0 0 1 2.5 17" />
    <path d="m10 15 5-3-5-3z" />
</svg> -->
<svg xmlns="http://www.w3.org/2000/svg"  viewBox="0 0 24 24">
    <mask id="SVGsyA92bmM">
        <g fill="none" fill-opacity="0" stroke="#fff" stroke-linecap="round" stroke-linejoin="round"
            stroke-width="2">
            <path fill="#fff" stroke-dasharray="64" stroke-dashoffset="64"
                d="M12 5c9 0 9 0 9 7c0 7 0 7 -9 7c-9 0 -9 0 -9 -7c0 -7 0 -7 9 -7Z">
                <animate fill="freeze" attributeName="fill-opacity" begin="0.6s" dur="0.5s"
                    values="0;1" />
                <animate fill="freeze" attributeName="stroke-dashoffset" dur="0.6s" values="64;0" />
            </path>
            <path fill="#000" stroke="none" d="M12 11L12 12L12 13z">
                <animate fill="freeze" attributeName="d" begin="1.1s" dur="0.2s"
                    values="M12 11L12 12L12 13z;M10 8.5L16 12L10 15.5z" />
                <set fill="freeze" attributeName="fill-opacity" begin="1.1s" to="1" />
            </path>
        </g>
    </mask>
    <rect width="24" height="24" fill="currentColor" mask="url(#SVGsyA92bmM)" />
</svg>